<svg width="20" height="20" viewBox="0 0 20 20" fill="none" xmlns="http://www.w3.org/2000/svg">
<path d="M12.4828 5.85334V2.52001C12.4828 2.29899 12.5706 2.08703 12.7269 1.93075C12.8832 1.77447 13.0952 1.68667 13.3162 1.68667C13.5372 1.68667 13.7491 1.77447 13.9054 1.93075C14.0617 2.08703 14.1495 2.29899 14.1495 2.52001V4.69584C14.6745 4.16751 18.067 0.757506 18.5603 0.264172C18.6372 0.184581 18.7292 0.121095 18.8308 0.0774213C18.9325 0.0337471 19.0419 0.0107586 19.1525 0.00979709C19.2631 0.00883558 19.3729 0.0299203 19.4753 0.0718211C19.5777 0.113722 19.6708 0.175599 19.749 0.253843C19.8272 0.332087 19.8891 0.425131 19.931 0.527544C19.9729 0.629958 19.994 0.739691 19.993 0.85034C19.9921 0.96099 19.9691 1.07034 19.9254 1.17201C19.8817 1.27368 19.8183 1.36563 19.7387 1.44251C19.2453 1.93584 15.8703 5.33001 15.3487 5.85334H17.4828C17.7038 5.85334 17.9158 5.94114 18.0721 6.09742C18.2284 6.2537 18.3162 6.46566 18.3162 6.68667C18.3162 6.90769 18.2284 7.11965 18.0721 7.27593C17.9158 7.43221 17.7038 7.52001 17.4828 7.52001H14.1495C13.7075 7.52001 13.2836 7.34441 12.971 7.03185C12.6584 6.71929 12.4828 6.29537 12.4828 5.85334ZM19.2287 13.9692C19.7116 14.4534 19.9828 15.1094 19.9828 15.7933C19.9828 16.4772 19.7116 17.1332 19.2287 17.6175L18.4687 18.4925C11.6428 25.0242 -4.96383 8.42251 1.46867 1.57584L2.427 0.742506C2.9117 0.27296 3.56177 0.0131215 4.23658 0.0192037C4.91139 0.0252859 5.55668 0.2968 6.03283 0.775006C6.05867 0.800006 7.602 2.80667 7.602 2.80667C8.0586 3.28879 8.31266 3.92782 8.31173 4.59184C8.3108 5.25586 8.05495 5.89417 7.597 6.37501L6.632 7.58834C7.16616 8.88586 7.95138 10.0651 8.94257 11.0583C9.93376 12.0515 11.1114 12.8391 12.4078 13.3758L13.6287 12.405C14.1085 11.9458 14.7468 11.6891 15.411 11.6882C16.0752 11.6873 16.7142 11.9422 17.1953 12.4C17.1953 12.4 19.2028 13.9442 19.2287 13.9692ZM18.0828 15.1808C18.0828 15.1808 16.0887 13.6458 16.0628 13.6208C15.8912 13.4506 15.6592 13.3551 15.4174 13.3551C15.1757 13.3551 14.9437 13.4506 14.772 13.6208C14.7495 13.6425 13.0687 14.9825 13.0687 14.9825C12.9554 15.0727 12.8206 15.1318 12.6775 15.154C12.5345 15.1762 12.3881 15.1607 12.2528 15.1092C10.5724 14.4839 9.04594 13.5047 7.77708 12.2379C6.50821 10.971 5.52656 9.44616 4.89867 7.76667C4.843 7.62955 4.82485 7.48008 4.84609 7.33362C4.86732 7.18716 4.92718 7.049 5.0195 6.93334C5.0195 6.93334 6.3595 5.25501 6.382 5.23334C6.55222 5.06166 6.64773 4.82969 6.64773 4.58792C6.64773 4.34616 6.55222 4.11418 6.382 3.94251C6.357 3.91751 4.822 1.92167 4.822 1.92167C4.64775 1.76543 4.42034 1.68175 4.18637 1.68779C3.95241 1.69384 3.72962 1.78914 3.56367 1.95417L2.60533 2.78751C-2.09633 8.44001 12.297 22.035 17.2495 17.3567L18.0095 16.4808C18.1887 16.3164 18.2966 16.0885 18.3103 15.8457C18.324 15.6029 18.2424 15.3644 18.0828 15.1808Z" fill="#48D68A"/>
</svg>
