<svg width="20" height="20" viewBox="0 0 20 20" fill="none" xmlns="http://www.w3.org/2000/svg">
<path d="M2.50017 5.83398V2.50065C2.50017 2.05862 2.67576 1.6347 2.98832 1.32214C3.30088 1.00958 3.72481 0.833984 4.16683 0.833984H7.50017C7.72118 0.833984 7.93314 0.921782 8.08942 1.07806C8.2457 1.23434 8.3335 1.4463 8.3335 1.66732C8.3335 1.88833 8.2457 2.10029 8.08942 2.25657C7.93314 2.41285 7.72118 2.50065 7.50017 2.50065H5.366L10.2877 7.43898C10.3048 7.45624 10.3252 7.46991 10.3476 7.47921C10.3701 7.48851 10.3942 7.49325 10.4185 7.49315C10.4426 7.49334 10.4665 7.48872 10.4889 7.47956C10.5112 7.47041 10.5315 7.45689 10.5485 7.43982L16.2852 1.70315C16.4423 1.55135 16.6528 1.46736 16.8713 1.46926C17.0898 1.47115 17.2988 1.5588 17.4534 1.7133C17.6079 1.86781 17.6955 2.07682 17.6974 2.29532C17.6993 2.51381 17.6153 2.72432 17.4635 2.88148L11.7268 8.61815C11.5556 8.79067 11.3517 8.92741 11.1271 9.0204C10.9025 9.11339 10.6616 9.16078 10.4185 9.15982C10.175 9.1604 9.93378 9.1126 9.7089 9.01918C9.48401 8.92576 9.27993 8.7886 9.1085 8.61565L4.16683 3.65815V5.83398C4.16683 6.055 4.07904 6.26696 3.92276 6.42324C3.76647 6.57952 3.55451 6.66732 3.3335 6.66732C3.11249 6.66732 2.90052 6.57952 2.74424 6.42324C2.58796 6.26696 2.50017 6.055 2.50017 5.83398ZM20.0002 16.7565L19.9293 17.8098C19.9171 18.4011 19.6731 18.964 19.25 19.3772C18.8268 19.7904 18.2583 20.0209 17.6668 20.019C17.6302 20.019 15.5652 19.7507 15.5652 19.7507C14.9841 19.7344 14.4314 19.4961 14.0207 19.0847C13.6101 18.6733 13.3728 18.1201 13.3577 17.539L13.2285 16.4623C12.1985 16.0619 11.1052 15.8491 10.0002 15.834C8.89798 15.8395 7.80641 16.0498 6.781 16.454L6.65017 17.5373C6.63541 18.1194 6.39771 18.6736 5.98615 19.0855C5.57458 19.4973 5.02057 19.7355 4.4385 19.7507C4.4385 19.7507 2.3735 20.019 2.33683 20.019C1.73551 20.0183 1.15902 19.7791 0.733905 19.3538C0.308785 18.9285 0.0697735 18.352 0.0693324 17.7507L0.000165722 16.814C-0.0049224 16.2295 0.107202 15.6498 0.329914 15.1094C0.552627 14.5689 0.881408 14.0786 1.29683 13.6673C5.03933 9.92732 14.9635 9.92815 18.7027 13.6673C19.1126 14.0708 19.4383 14.5516 19.661 15.0819C19.8838 15.6121 19.999 16.1813 20.0002 16.7565ZM18.3335 16.6982C18.316 15.9989 18.0245 15.3345 17.5218 14.8482C14.2035 11.5273 5.33267 11.9907 2.47433 14.8482C2.22034 15.0968 2.01819 15.3933 1.87959 15.7206C1.74098 16.0479 1.66866 16.3994 1.66683 16.7548L1.73433 17.694C1.72448 17.8546 1.77721 18.0128 1.88146 18.1354C1.98571 18.258 2.13338 18.3354 2.2935 18.3515C2.2935 18.3515 4.34183 18.0848 4.37683 18.0848C4.53627 18.0844 4.68905 18.0208 4.80179 17.9081C4.91453 17.7954 4.97806 17.6426 4.9785 17.4832C4.9785 17.4498 5.17767 15.7748 5.17767 15.7748C5.19481 15.6318 5.24873 15.4957 5.33417 15.3797C5.41961 15.2637 5.53365 15.1719 5.66517 15.1132C7.01091 14.4977 8.47207 14.1753 9.95183 14.1673H10.0043C11.4916 14.189 12.9594 14.5087 14.321 15.1073C14.4555 15.1648 14.5725 15.2566 14.6603 15.3737C14.7481 15.4907 14.8035 15.6288 14.821 15.774C14.821 15.774 15.0202 17.449 15.0202 17.4823C15.0206 17.6418 15.0841 17.7945 15.1969 17.9073C15.3096 18.02 15.4624 18.0835 15.6218 18.084C15.6585 18.084 17.7052 18.3507 17.7052 18.3507C17.8565 18.3395 17.9981 18.2716 18.1015 18.1605C18.2049 18.0493 18.2624 17.9033 18.2627 17.7515L18.3335 16.6982Z" fill="#F52923"/>
</svg>
