<svg width="20" height="20" viewBox="0 0 20 20" fill="none" xmlns="http://www.w3.org/2000/svg">
<g clip-path="url(#clip0_7380_25842)">
<path d="M19.9831 1.68504V5.01837C19.9831 5.23938 19.8953 5.45134 19.739 5.60762C19.5828 5.7639 19.3708 5.8517 19.1498 5.8517C18.9288 5.8517 18.7168 5.7639 18.5605 5.60762C18.4042 5.45134 18.3164 5.23938 18.3164 5.01837V2.88254L13.8998 7.27587C13.7422 7.42728 13.5314 7.51073 13.3129 7.50824C13.0944 7.50575 12.8856 7.41751 12.7315 7.26255C12.5774 7.10758 12.4903 6.89828 12.4891 6.67975C12.4878 6.46121 12.5725 6.25093 12.7248 6.0942L17.1581 1.68504H14.9831C14.7621 1.68504 14.5501 1.59724 14.3939 1.44096C14.2376 1.28468 14.1498 1.07272 14.1498 0.851702C14.1498 0.630688 14.2376 0.418726 14.3939 0.262446C14.5501 0.106166 14.7621 0.0183685 14.9831 0.0183685H18.3164C18.7585 0.0183685 19.1824 0.193963 19.495 0.506524C19.8075 0.819084 19.9831 1.24301 19.9831 1.68504ZM19.2289 13.9675C19.7119 14.4518 19.9831 15.1078 19.9831 15.7917C19.9831 16.4756 19.7119 17.1316 19.2289 17.6159L18.4689 18.4909C11.6431 25.0225 -4.96439 8.42004 1.46895 1.5742L2.42645 0.740868C2.91152 0.271511 3.56173 0.0117526 4.23668 0.0176773C4.91164 0.023602 5.55718 0.294735 6.03395 0.772535C6.05895 0.798368 7.60311 2.80504 7.60311 2.80504C8.06117 3.28624 8.31623 3.92542 8.3153 4.58979C8.31437 5.25415 8.05752 5.89261 7.59811 6.37253L6.63228 7.5867C7.16632 8.88429 7.9515 10.0636 8.9427 11.0568C9.93391 12.05 11.1116 12.8375 12.4081 13.3742L13.6289 12.4034C14.1088 11.9442 14.7471 11.6875 15.4113 11.6866C16.0754 11.6856 16.7144 11.9406 17.1956 12.3984C17.1956 12.3984 19.2031 13.9425 19.2289 13.9675ZM18.0831 15.1792C18.0831 15.1792 16.0889 13.6442 16.0631 13.6192C15.8914 13.449 15.6595 13.3535 15.4177 13.3535C15.1759 13.3535 14.944 13.449 14.7723 13.6192C14.7498 13.6409 13.0689 14.9809 13.0689 14.9809C12.9557 15.071 12.8209 15.1301 12.6778 15.1523C12.5348 15.1745 12.3884 15.1591 12.2531 15.1075C10.5725 14.4826 9.04593 13.5033 7.77715 12.2362C6.50838 10.9692 5.52705 9.44401 4.89978 7.7642C4.8449 7.62763 4.82718 7.47897 4.8484 7.33333C4.86963 7.18768 4.92904 7.05026 5.02061 6.93503C5.02061 6.93503 6.35978 5.2542 6.38228 5.2317C6.5525 5.06002 6.64801 4.82805 6.64801 4.58628C6.64801 4.34452 6.5525 4.11255 6.38228 3.94087C6.35728 3.91587 4.82228 1.92087 4.82228 1.92087C4.64813 1.76452 4.42078 1.68069 4.18682 1.68658C3.95286 1.69247 3.73001 1.78762 3.56395 1.95254L2.60645 2.78587C-2.09689 8.43754 12.2973 22.0342 17.2498 17.3542L18.0098 16.4792C18.189 16.3148 18.2969 16.0869 18.3106 15.8441C18.3243 15.6013 18.2427 15.3627 18.0831 15.1792Z" fill="#221F20"/>
</g>
<defs>
<clipPath id="clip0_7380_25842">
<rect width="20" height="20" fill="white"/>
</clipPath>
</defs>
</svg>
